<svg width="120" height="120" viewBox="0 0 120 120" xmlns="http://www.w3.org/2000/svg" role="img">
  <title>Lv.1 要研修 - 炎上リスク高め</title>
  <path d="M60 6 L104 22 L104 72 Q104 106 60 120 Q16 106 16 72 L16 22 Z" fill="#FFF3E0" stroke="#EF5350" stroke-width="2.5"/>
  <path d="M36 102 Q28 86 34 72 Q36 80 40 76 Q36 60 44 48 Q46 64 52 60 Q44 44 52 30 Q60 44 58 58 Q66 52 62 68 Q68 72 68 82 Q72 68 70 56 Q80 66 78 82 Q84 88 80 102 Z" fill="#EF5350"/>
  <path d="M52 102 Q48 92 52 84 Q54 90 58 86 Q54 76 60 66 Q64 76 62 84 Q66 80 66 90 Q68 96 66 102 Z" fill="#FF8A65"/>
  <rect x="38" y="106" width="44" height="14" rx="7" fill="#EF5350"/>
  <text x="60" y="117" font-family="'Helvetica Neue',Arial,sans-serif" font-size="11" font-weight="700" text-anchor="middle" fill="#fff">Lv.1</text>
</svg>
