<svg width="120" height="120" viewBox="0 0 120 120" xmlns="http://www.w3.org/2000/svg" role="img">
  <title>Lv.2 要強化 - 炎上リスクやや高め</title>
  <path d="M60 6 L104 22 L104 72 Q104 106 60 120 Q16 106 16 72 L16 22 Z" fill="#FFF8E1" stroke="#FF7043" stroke-width="2.5"/>
  <path d="M38 102 Q32 88 38 76 Q40 84 44 80 Q40 68 48 56 Q50 68 56 64 Q50 52 56 42 Q62 54 60 66 Q66 60 64 74 Q70 78 68 90 Q72 80 72 68 Q80 76 78 90 Q82 96 78 102 Z" fill="#FF7043"/>
  <path d="M50 102 Q46 92 50 84 Q53 90 57 86 Q52 76 58 68 Q62 78 60 88 Q64 82 65 92 Q66 98 62 102 Z" fill="#FFAB76"/>
  <rect x="38" y="106" width="44" height="14" rx="7" fill="#FF7043"/>
  <text x="60" y="117" font-family="'Helvetica Neue',Arial,sans-serif" font-size="11" font-weight="700" text-anchor="middle" fill="#fff">Lv.2</text>
</svg>
