<svg width="120" height="120" viewBox="0 0 120 120" xmlns="http://www.w3.org/2000/svg" role="img">
  <title>Lv.3 標準水準 - 炎上リスク普通</title>
  <path d="M60 6 L104 22 L104 72 Q104 106 60 120 Q16 106 16 72 L16 22 Z" fill="#FFFDE7" stroke="#FFC107" stroke-width="2.5"/>
  <path d="M42 100 Q38 90 42 80 Q44 88 48 84 Q44 74 50 64 Q54 74 52 82 Q56 76 56 86 Q60 80 60 70 Q66 78 64 88 Q68 82 70 72 Q74 80 72 92 Q76 96 74 100 Z" fill="#FFC107"/>
  <path d="M50 100 Q48 93 51 87 Q54 92 57 88 Q54 82 58 76 Q61 83 60 90 Q63 86 64 92 Q65 97 62 100 Z" fill="#FFE082"/>
  <path d="M52 62 Q48 54 52 48 Q54 54 56 50 Q55 44 58 40" fill="none" stroke="#BDBDBD" stroke-width="1.5" stroke-linecap="round"/>
  <path d="M60 58 Q57 50 60 45 Q62 50 63 46" fill="none" stroke="#BDBDBD" stroke-width="1.2" stroke-linecap="round"/>
  <rect x="38" y="106" width="44" height="14" rx="7" fill="#FFA000"/>
  <text x="60" y="117" font-family="'Helvetica Neue',Arial,sans-serif" font-size="11" font-weight="700" text-anchor="middle" fill="#fff">Lv.3</text>
</svg>
