<svg width="120" height="120" viewBox="0 0 120 120" xmlns="http://www.w3.org/2000/svg" role="img">
  <title>Lv.5 最高水準 - 炎上リスク低め</title>
  <path d="M60 6 L104 22 L104 72 Q104 106 60 120 Q16 106 16 72 L16 22 Z" fill="#FFFDE7" stroke="#FFD600" stroke-width="3"/>
  <path d="M60 18 L92 30 L92 68 Q92 92 60 106 Q28 92 28 68 L28 30 Z" fill="#FFF9C4" stroke="#FFD600" stroke-width="2"/>
  <polygon points="60,32 64.5,45 78,45 67.5,53 71,66 60,58 49,66 52.5,53 42,45 55.5,45" fill="#FFD600" stroke="#F9A825" stroke-width="1"/>
  <rect x="38" y="106" width="44" height="14" rx="7" fill="#F9A825"/>
  <text x="60" y="117" font-family="'Helvetica Neue',Arial,sans-serif" font-size="11" font-weight="700" text-anchor="middle" fill="#fff">Lv.5</text>
</svg>
